<svg id="Layer_1" data-name="Layer 1" xmlns="http://www.w3.org/2000/svg" viewBox="0 0 387.88 384.46"><defs><style>.cls-1{fill:#fff;}.cls-2{fill:#d60000;}</style></defs><path d="M638.44,331.51,530.17,220.06H407.89a43.5,43.5,0,0,0-30.27,12.13,41.3,41.3,0,0,0-12.72,29.72v257.4A41.26,41.26,0,0,0,377.62,549a43.47,43.47,0,0,0,30.27,12.14H598.28A43.47,43.47,0,0,0,628.55,549a41.26,41.26,0,0,0,12.72-29.71V334.42Zm-24.55,3.4H560.31a35.51,35.51,0,0,1-24.53-9.6,30.89,30.89,0,0,1-9.88-22.5V244.33Zm.79,199.75a23.57,23.57,0,0,1-16.4,6.53H407.89a23.57,23.57,0,0,1-16.4-6.53,21.23,21.23,0,0,1-6.61-15.35V261.91a21.19,21.19,0,0,1,6.61-15.35,23.48,23.48,0,0,1,16.4-6.53H504.5v62.78a52.34,52.34,0,0,0,16.55,38,56.91,56.91,0,0,0,39.26,15.47h61v163A21.23,21.23,0,0,1,614.68,534.66Z" transform="translate(-316.05 -220.06)"/><path class="cls-1" d="M607.31,604.51l-6.78-7.44-75.91-83.41-13.94-15.32h44.93V420.16c0-9.22,8.18-16.44,18.61-16.44H640.4c10.43,0,18.61,7.22,18.61,16.44v78.18h44.93l-14,15.32-75.91,83.41-6.77,7.44Z" transform="translate(-316.05 -220.06)"/><path class="cls-2" d="M649.84,507.5V420.15c0-4-4.23-7.27-9.45-7.27H574.22c-5.22,0-9.45,3.26-9.45,7.27V507.5H531.4l75.91,83.4,75.91-83.4Z" transform="translate(-316.05 -220.06)"/><path class="cls-1" d="M476,413.57H335.41a19.54,19.54,0,0,1-19.36-19.66v-80.6a19.54,19.54,0,0,1,19.36-19.66H476a19.54,19.54,0,0,1,19.36,19.66v80.6A19.54,19.54,0,0,1,476,413.57Z" transform="translate(-316.05 -220.06)"/><path class="cls-2" d="M494.28,393.91a10.42,10.42,0,0,1-10.43,10.4h-145a10.42,10.42,0,0,1-10.44-10.4v-80.6a10.42,10.42,0,0,1,10.44-10.4h145a10.42,10.42,0,0,1,10.43,10.4Z" transform="translate(-316.05 -220.06)"/><g id="_PDF_" data-name="&lt;PDF&gt;"><path class="cls-1" d="M342.15,322.23h18.33a47.16,47.16,0,0,1,12.94,1.38,14,14,0,0,1,7.72,6.23,21.78,21.78,0,0,1,3.13,12,23.12,23.12,0,0,1-2.53,11.4,14.73,14.73,0,0,1-7,6.51q-4.45,2-13.69,2h-4.94V385h-14Zm14,10.16V351h4.34c3.82,0,6.29-.87,7.39-2.63a12.54,12.54,0,0,0,1.66-6.81,11.22,11.22,0,0,0-1.29-5.74,6,6,0,0,0-3-2.82,14.63,14.63,0,0,0-4.78-.62Z" transform="translate(-316.05 -220.06)"/><path class="cls-1" d="M391,322.23h15.07q9.79,0,15.92,2.6t9.82,9.59q3.69,7,3.69,18.89a46.41,46.41,0,0,1-2.24,15,27.25,27.25,0,0,1-5.88,10.32,18.1,18.1,0,0,1-8.21,5.06A42.8,42.8,0,0,1,407.72,385H391ZM405,333v41.24h2.39q4.86,0,7.53-1.84t4.26-6.42q1.59-4.59,1.59-13.23,0-8-1.75-12.34c-1.18-2.88-2.64-4.84-4.4-5.87a14.36,14.36,0,0,0-7.23-1.54Z" transform="translate(-316.05 -220.06)"/><path class="cls-1" d="M444.67,322.23h37.78V333H458.66V349.4H477v10.76H458.66V385h-14Z" transform="translate(-316.05 -220.06)"/></g></svg>